# xmcd CD database file
#
# Track frame offsets:
#	150
#	9026
#	22792
#	33870
#	43131
#	53385
#	65308
#	75173
#	89681
#	99840
#	112764
#	130952
#	144327
#
# Disc length: 2072 seconds
#
# Revision: 0
# Processed by: cddbd v1.5.2PL0 Copyright (c) Steve Scherf et al.
# Submitted via: jetAudio 7
#
DISCID=8408160d
DTITLE=Connie Smith - The Lost Tapes
DYEAR=1900
DGENRE=Country
TTITLE0=Just One Time
TTITLE1=I Never Oce Stopped Loving You
TTITLE2=Louisana Man
TTITLE3=Cinncinati Ohio
TTITLE4=Just For What I Am
TTITLE5=Once A Day
TTITLE6=If It Ain't Love (Let's Leave It Alone)
TTITLE7=Long Black Limousine
TTITLE8=The Race Is On
TTITLE9=Amazing Grace
TTITLE10=How Great Thou Art
TTITLE11=Where Isa My Castle
TTITLE12=He Touched Me
EXTD=
EXTT0=
EXTT1=
EXTT2=
EXTT3=
EXTT4=
EXTT5=
EXTT6=
EXTT7=
EXTT8=
EXTT9=
EXTT10=
EXTT11=
EXTT12=
PLAYORDER=
